#!OML:ASF I:\Actors\actors\Patient Classification 2\Patient 1\Session 1\actor1.ASF
:FULLY-SPECIFIED
:DEGREES
786
root -0.670906 18.6634 5.95356 2.06726 -3.85695 -2.83306
lowerback 0.234574 0.922127 1.28861
upperback -2.00504 1.26694 0.994349
thorax -2.18104 0.619131 0.270566
lowerneck -11.2963 -1.72487 -2.08707
upperneck 27.8341 -2.68048 2.35933
head 10.8781 -1.16885 0.872349
rclavicle 7.48626e-015 1.03617e-014
rhumerus -49.8097 -8.04416 -82.9089
rradius 43.584
rwrist 20.7433
rhand -6.58315 -36.5727
rfingers 7.12502
rthumb 19.2717 -425.638
lclavicle 7.48626e-015 1.03617e-014
lhumerus -43.1687 -1.81903 91.6852
lradius 38.4733
lwrist -4.24985
lhand -14.5999 -29.4302
lfingers 7.12502
lthumb 11.5507 0.23152
rfemur 0 0 0
rtibia 0
rfoot 0 0
rtoes 0
lfemur -2.67112 -8.69446 -12.2513
ltibia 21.4865
lfoot -27.0761 17.7367
ltoes -53.2964
787
root -0.67061 18.6637 5.95163 2.08193 -3.84761 -2.84384
lowerback 0.21573 0.933696 1.28308
upperback -1.99341 1.28183 1.00036
thorax -2.15869 0.626865 0.279961
lowerneck -11.3526 -1.7429 -2.05318
upperneck 27.8376 -2.71 2.34778
head 10.8907 -1.17957 0.858188
rclavicle -6.38829e-015 -1.09332e-014
rhumerus -49.7792 -8.02881 -82.929
rradius 43.5779
rwrist 20.724
rhand -6.91097 -36.4199
rfingers 7.12502
rthumb 18.9564 -425.516
lclavicle -6.38829e-015 -1.09332e-014
lhumerus -43.107 -1.78155 91.6873
lradius 38.3894
lwrist -4.33395
lhand -14.5817 -29.4687
lfingers 7.12502
lthumb 11.5682 0.192046
rfemur 0 0 0
rtibia 0
rfoot 0 0
rtoes 0
lfemur -2.69728 -8.67107 -12.2355
ltibia 21.4859
lfoot -27.0496 17.7421
ltoes -53.3781
788
root -0.671174 18.6643 5.94936 2.08695 -3.83923 -2.84778
lowerback 0.222873 0.941259 1.26103
upperback -1.99321 1.29194 1.00981
thorax -2.16315 0.632393 0.30164
lowerneck -11.3756 -1.75181 -2.03016
upperneck 27.8411 -2.72186 2.3272
head 10.8964 -1.18474 0.845121
rclavicle -3.46864e-015 8.94531e-016
rhumerus -49.7192 -8.08471 -82.9239
rradius 43.5117
rwrist 20.7539
rhand -6.95106 -36.409
rfingers 7.12502
rthumb 18.9179 -425.509
lclavicle -3.46864e-015 8.94531e-016
lhumerus -43.0864 -1.76172 91.6994
lradius 38.3724
lwrist -4.3852
lhand -14.4693 -29.4257
lfingers 7.12502
lthumb 11.6766 0.228947
rfemur 0 0 0
rtibia 0
rfoot 0 0
rtoes 0
lfemur -2.71077 -8.64769 -12.2208
ltibia 21.4865
lfoot -27.0378 17.7091
ltoes -53.3607
789
root -0.671226 18.6646 5.94819 2.07509 -3.85477 -2.83823
lowerback 0.230444 0.947879 1.23358
upperback -1.99832 1.30071 1.01354
thorax -2.17331 0.637248 0.320455
lowerneck -11.3323 -1.75071 -2.03773
upperneck 27.8304 -2.72348 2.34314
head 10.8841 -1.18478 0.852286
rclavicle 7.90014e-015 -1.39149e-015
rhumerus -49.7369 -8.05062 -82.9258
rradius 43.516
rwrist 20.7308
rhand -6.92958 -36.4616
rfingers 7.12502
rthumb 18.9386 -425.56
lclavicle 7.90014e-015 -1.39149e-015
lhumerus -43.1496 -1.81183 91.7471
lradius 38.3998
lwrist -4.44259
lhand -14.4796 -29.4138
lfingers 7.12502
lthumb 11.6666 0.2414
rfemur 0 0 0
rtibia 0
rfoot 0 0
rtoes 0
lfemur -2.69619 -8.64249 -12.2307
ltibia 21.4903
lfoot -27.0641 17.6772
ltoes -53.2704
790
root -0.671097 18.6643 5.94793 2.06338 -3.87049 -2.8373
lowerback 0.219885 0.953536 1.21472
upperback -1.99746 1.30793 1.02293
thorax -2.1671 0.641324 0.340672
lowerneck -11.292 -1.74856 -2.02351
upperneck 27.8155 -2.71293 2.3048
head 10.8693 -1.18345 0.83759
rclavicle -2.3167e-014 1.03368e-014
rhumerus -49.7924 -7.96017 -82.9119
rradius 43.5667
rwrist 20.6987
rhand -6.85853 -36.4695
rfingers 7.12502
rthumb 19.0069 -425.561
lclavicle -2.3167e-014 1.03368e-014
lhumerus -43.2021 -1.82816 91.7822
lradius 38.3214
lwrist -4.68089
lhand -14.7409 -29.5266
lfingers 7.12502
lthumb 11.4146 0.142703
rfemur 0 0 0
rtibia 0
rfoot 0 0
rtoes 0
lfemur -2.6892 -8.64118 -12.2382
ltibia 21.4938
lfoot -27.0483 17.7171
ltoes -53.3135
791
root -0.670249 18.6642 5.94675 2.07108 -3.85733 -2.82803
lowerback 0.20554 0.946589 1.2133
upperback -2.00405 1.29843 1.02108
thorax -2.16581 0.636576 0.339966
lowerneck -11.2485 -1.73922 -2.0119
upperneck 27.7917 -2.69964 2.29544
head 10.851 -1.17776 0.83416
rclavicle 9.35142e-015 5.86415e-015
rhumerus -49.7828 -7.9735 -82.883
rradius 43.543
rwrist 20.7611
rhand -6.58881 -36.5157
rfingers 7.12502
rthumb 19.2662 -425.581
lclavicle 9.35142e-015 5.86415e-015
lhumerus -43.2401 -1.81945 91.776
lradius 38.2402
lwrist -4.83864
lhand -14.9874 -29.653
lfingers 7.12502
lthumb 11.1769 0.029263
rfemur 0 0 0
rtibia 0
rfoot 0 0
rtoes 0
lfemur -2.71359 -8.62747 -12.2459
ltibia 21.4938
lfoot -27.0037 17.7329
ltoes -53.3119
792
root -0.668243 18.6641 5.94477 2.06914 -3.83038 -2.81629
lowerback 0.208882 0.929898 1.23388
upperback -2.01028 1.27649 1.01491
thorax -2.17358 0.625135 0.322469
lowerneck -11.2161 -1.72091 -2.05956
upperneck 27.7733 -2.6924 2.40024
head 10.8397 -1.16736 0.881294
rclavicle -9.05169e-015 3.72721e-016
rhumerus -49.7418 -8.0388 -82.8544
rradius 43.4841
rwrist 20.8612
rhand -6.2521 -36.6423
rfingers 7.12502
rthumb 19.59 -425.675
lclavicle -9.05169e-015 3.72721e-016
lhumerus -43.2844 -1.81508 91.7582
lradius 38.2282
lwrist -4.8397
lhand -15.078 -29.7775
lfingers 7.12502
lthumb 11.0895 -0.0904658
rfemur 0 0 0
rtibia 0
rfoot 0 0
rtoes 0
lfemur -2.71946 -8.61276 -12.257
ltibia 21.4936
lfoot -27.022 17.6653
ltoes -53.2019
793
root -0.667074 18.6638 5.94324 2.05512 -3.81033 -2.81687
lowerback 0.209953 0.920931 1.25074
upperback -2.0075 1.26486 1.02144
thorax -2.17115 0.619097 0.319968
lowerneck -11.2259 -1.7145 -2.07703
upperneck 27.7811 -2.68366 2.41576
head 10.8448 -1.16321 0.890967
rclavicle 1.86392e-014 2.23633e-016
rhumerus -49.7408 -8.04924 -82.8108
rradius 43.4665
rwrist 20.926
rhand -6.21608 -36.6637
rfingers 7.12502
rthumb 19.6246 -425.693
lclavicle 1.86392e-014 2.23633e-016
lhumerus -43.2857 -1.74011 91.7152
lradius 38.1597
lwrist -4.91755
lhand -15.115 -29.8985
lfingers 7.12502
lthumb 11.0539 -0.209564
rfemur 0 0 0
rtibia 0
rfoot 0 0
rtoes 0
lfemur -2.70731 -8.59753 -12.2567
ltibia 21.4905
lfoot -27.0392 17.6146
ltoes -53.199
794
root -0.666963 18.6641 5.9426 2.04478 -3.80155 -2.81922
lowerback 0.20385 0.921848 1.25059
upperback -2.00017 1.26603 1.03215
thorax -2.16043 0.619856 0.331178
lowerneck -11.2654 -1.72167 -2.04777
upperneck 27.8149 -2.67453 2.32349
head 10.8634 -1.16643 0.853594
rclavicle -2.35203e-014 -8.92046e-015
rhumerus -49.7616 -7.99888 -82.7839
rradius 43.5177
rwrist 20.9606
rhand -6.83116 -36.2076
rfingers 7.12502
rthumb 19.0332 -425.296
lclavicle -2.35203e-014 -8.92046e-015
lhumerus -43.2459 -1.63743 91.6518
lradius 38.0861
lwrist -4.91937
lhand -14.9843 -29.8721
lfingers 7.12502
lthumb 11.1799 -0.189954
rfemur 0 0 0
rtibia 0
rfoot 0 0
rtoes 0
lfemur -2.69888 -8.57817 -12.2496
ltibia 21.4841
lfoot -27.007 17.6009
ltoes -53.2646
